HIERARCHY
ROOT Pelvis
{
	OFFSET 0.000000 0.000000 0.000000
	CHANNELS 6 Xposition Yposition Zposition Xrotation Yrotation Zrotation
	JOINT LeftUpLeg_virtual
	{
		OFFSET 0.000000 0.000000 0.000000
		CHANNELS 3 Xrotation Yrotation Zrotation
		JOINT LeftUpLeg
		{
			OFFSET 18.735201 -5.666702 -4.541200
			CHANNELS 3 Xrotation Yrotation Zrotation
			JOINT LeftLeg
			{
				OFFSET -0.021200 -31.938179 0.493100
				CHANNELS 3 Xrotation Yrotation Zrotation
				JOINT LeftFoot
				{
					OFFSET 0.021200 -31.938179 -4.336299
					CHANNELS 3 Xrotation Yrotation Zrotation
					JOINT LeftToeBase
					{
						OFFSET 0.943001 -26.722000 15.023500
						CHANNELS 3 Xrotation Yrotation Zrotation
						End Site
						{
							OFFSET 0 0 0
						}
					}
				}
			}
		}
	}
	JOINT RightUpLeg_virtual
	{
		OFFSET 0.000000 0.000000 0.000000
		CHANNELS 3 Xrotation Yrotation Zrotation
		JOINT RightUpLeg
		{
			OFFSET -18.735201 -5.666702 -4.541200
			CHANNELS 3 Xrotation Yrotation Zrotation
			JOINT RightLeg
			{
				OFFSET 0.018946 -31.938133 0.493100
				CHANNELS 3 Xrotation Yrotation Zrotation
				JOINT RightFoot
				{
					OFFSET -0.018946 -31.938126 -4.336299
					CHANNELS 3 Xrotation Yrotation Zrotation
					JOINT RightToeBase
					{
						OFFSET -0.943001 -26.722004 15.023500
						CHANNELS 3 Xrotation Yrotation Zrotation
						End Site
						{
							OFFSET 0 0 0
						}
					}
				}
			}
		}
	}
	JOINT Hips_virtual
	{
		OFFSET 0.000000 0.000000 0.000000
		CHANNELS 3 Xrotation Yrotation Zrotation
		JOINT Hips
		{
			OFFSET -0.000000 -0.000000 -0.000000
			CHANNELS 3 Xrotation Yrotation Zrotation
			JOINT Spine
			{
				OFFSET 0.000000 10.199997 -0.299500
				CHANNELS 3 Xrotation Yrotation Zrotation
				JOINT Spine1
				{
					OFFSET 0.000000 11.900002 -1.516600
					CHANNELS 3 Xrotation Yrotation Zrotation
					JOINT Spine2
					{
						OFFSET 0.000000 13.600006 -2.842500
						CHANNELS 3 Xrotation Yrotation Zrotation
						JOINT Neck_virtual
						{
							OFFSET 0.000000 0.000000 0.000000
							CHANNELS 3 Xrotation Yrotation Zrotation
							JOINT Neck
							{
								OFFSET 0.000000 9.624100 -2.890100
								CHANNELS 3 Xrotation Yrotation Zrotation
								JOINT Head
								{
									OFFSET 0.000000 14.068802 -1.351900
									CHANNELS 3 Xrotation Yrotation Zrotation
									End Site
									{
										OFFSET 0 0 0
									}
								}
							}
						}
						JOINT LeftShoulder_virtual
						{
							OFFSET 0.000000 0.000000 0.000000
							CHANNELS 3 Xrotation Yrotation Zrotation
							JOINT LeftShoulder
							{
								OFFSET 15.263000 10.923401 -0.547700
								CHANNELS 3 Xrotation Yrotation Zrotation
								JOINT LeftArm
								{
									OFFSET 25.438599 -2.830597 -13.032500
									CHANNELS 3 Xrotation Yrotation Zrotation
									JOINT LeftForeArm
									{
										OFFSET 29.960503 0.000000 0.000000
										CHANNELS 3 Xrotation Yrotation Zrotation
										JOINT LeftHand
										{
											OFFSET 27.849251 0.000000 0.000000
											CHANNELS 3 Xrotation Yrotation Zrotation
											End Site
											{
												OFFSET 0 0 0
											}
										}
									}
								}
							}
						}
						JOINT RightShoulder_virtual
						{
							OFFSET 0.000000 0.000000 0.000000
							CHANNELS 3 Xrotation Yrotation Zrotation
							JOINT RightShoulder
							{
								OFFSET -15.263000 10.923401 -0.547700
								CHANNELS 3 Xrotation Yrotation Zrotation
								JOINT RightArm
								{
									OFFSET -25.438599 -2.830597 -13.032500
									CHANNELS 3 Xrotation Yrotation Zrotation
									JOINT RightForeArm
									{
										OFFSET -29.960503 0.000000 0.000000
										CHANNELS 3 Xrotation Yrotation Zrotation
										JOINT RightHand
										{
											OFFSET -27.849251 0.000000 0.000000
											CHANNELS 3 Xrotation Yrotation Zrotation
											End Site
											{
												OFFSET 0 0 0
											}
										}
									}
								}
							}
						}
					}
				}
			}
		}
	}
}
MOTION
Frames: 13
Frame Time: 0.03333333
-1.215376 81.098305 31.052595 0.000000 0.000000 0.000000 4.390693 -57.202998 6.885281 2.363096 14.867833 -17.286138 44.064057 -7.006354 -3.820788 -38.857704 -0.000770 9.529682 0.000000 0.000000 0.000000 2.989682 -55.650172 5.485448 -59.462602 2.743019 -8.776032 22.227085 6.631854 5.191956 2.561557 6.247430 22.045976 0.000000 0.000000 0.000000 2.576313 -54.361783 5.878025 0.017207 -0.333237 -0.625833 11.087257 -5.762611 4.756433 6.654024 -6.758448 3.707979 0.000000 0.000000 0.000000 -3.742720 -5.811258 2.138798 0.368003 7.519763 -1.551256 0.000000 0.000000 0.000000 -1.382120 -6.577238 1.936945 -0.276354 -4.332046 -2.824625 -6.870619 -10.427281 -34.613292 -0.445459 -22.866295 -3.093995 0.000000 0.000000 0.000000 -2.575778 -5.163352 2.840865 9.384590 -4.878802 3.322951 1.590075 -8.885647 72.686197 -5.724126 12.192583 6.884411 0.000000 0.000000 0.000000 
0.256434 81.987923 28.697618 0.000000 0.000000 0.000000 5.340243 -61.345508 8.368548 5.641020 13.257955 -18.238012 38.071351 -7.805876 -3.600751 -42.965233 -1.362053 9.264717 0.000000 0.000000 0.000000 3.571342 -60.079983 6.590157 -59.563395 2.617662 -9.493834 24.659884 6.713152 4.174417 4.301732 6.243656 21.752595 0.000000 0.000000 0.000000 3.004314 -58.048214 6.740995 -0.212192 -0.330078 -0.610243 11.266689 -5.132994 4.616755 5.969981 -6.300576 3.237334 0.000000 0.000000 0.000000 -4.711737 -5.324134 1.733073 0.568622 7.508168 -1.635223 0.000000 0.000000 0.000000 -2.032825 -6.155944 1.549297 -0.519599 -3.873282 -2.936409 -10.339648 -11.600575 -33.081707 -0.198290 -26.421320 -3.338049 0.000000 0.000000 0.000000 -3.461546 -4.696996 2.588556 9.091147 -6.053124 2.913354 0.072566 -2.976945 71.401070 -4.662081 15.442352 7.455254 0.000000 0.000000 0.000000 
1.476775 82.665588 26.427248 0.000000 0.000000 0.000000 5.734508 -63.628437 9.039066 6.194734 13.319992 -17.661382 36.064495 -7.427066 -3.622952 -44.653332 -1.608304 10.034962 0.000000 0.000000 0.000000 3.795115 -62.670824 6.816096 -59.736800 2.920874 -9.723386 28.838155 6.996721 3.057989 6.467489 5.790478 20.744222 0.000000 0.000000 0.000000 3.320002 -60.103383 7.050412 -0.208081 -0.387995 -0.946622 11.665966 -4.668751 4.535929 5.360852 -5.812240 2.937493 0.000000 0.000000 0.000000 -5.494251 -4.813795 1.478319 0.757937 7.482248 -1.659033 0.000000 0.000000 0.000000 -2.678720 -5.665881 1.337701 -0.650261 -3.420668 -2.896431 -12.171677 -12.293912 -32.253902 -0.026663 -30.219687 -3.687935 0.000000 0.000000 0.000000 -4.334950 -4.240790 2.432083 8.823132 -6.738266 3.284171 -0.526039 2.230266 68.743101 -3.373319 19.464475 8.119203 0.000000 0.000000 0.000000 
2.383863 83.267113 23.896118 0.000000 0.000000 0.000000 5.254060 -64.368304 8.554168 4.639990 14.104620 -16.531039 36.844277 -5.975793 -3.584534 -44.556517 -1.195422 11.976893 0.000000 0.000000 0.000000 3.215291 -63.675340 5.976100 -59.229816 3.190565 -9.724513 33.344516 7.224763 1.943478 8.039418 4.814843 19.379437 0.000000 0.000000 0.000000 3.141730 -60.891505 6.602041 -0.091130 -0.597787 -1.327169 12.088496 -4.361689 4.489078 4.820505 -5.253052 2.743587 0.000000 0.000000 0.000000 -6.021972 -4.248315 1.341052 0.966515 7.454725 -1.632558 0.000000 0.000000 0.000000 -3.286136 -5.093012 1.248601 -0.676893 -2.999285 -2.925749 -12.559835 -12.405100 -32.339938 0.038599 -34.513069 -4.046304 0.000000 0.000000 0.000000 -5.098710 -3.745145 2.329607 8.652969 -6.908724 4.056842 0.156270 6.199883 64.373556 -1.955668 24.111893 8.867043 0.000000 0.000000 0.000000 
3.007143 84.053139 21.192482 0.000000 0.000000 0.000000 4.068551 -64.021801 7.060942 2.342457 13.845149 -15.493982 37.309096 -4.561790 -3.043764 -43.759198 -1.100060 13.096133 0.000000 0.000000 0.000000 1.746937 -63.479245 4.299222 -57.792375 3.120098 -10.050603 37.112844 7.359032 0.894539 8.977053 3.805093 18.431660 0.000000 0.000000 0.000000 2.321999 -60.675651 5.395335 0.405267 -0.563887 -1.441292 12.374995 -4.169992 4.478362 4.376042 -4.597700 2.550751 0.000000 0.000000 0.000000 -6.316428 -3.625487 1.229902 1.220637 7.431649 -1.575274 0.000000 0.000000 0.000000 -3.789310 -4.452024 1.186074 -0.620087 -2.517513 -3.059145 -12.021030 -12.036271 -33.156976 -0.076825 -39.297931 -4.355470 0.000000 0.000000 0.000000 -5.639433 -3.160420 2.203087 8.566494 -6.708406 4.732578 1.535371 8.690519 59.422106 -0.445042 28.750138 9.542601 0.000000 0.000000 0.000000 
3.407039 84.948761 18.736141 0.000000 0.000000 0.000000 2.516032 -63.026848 4.991308 0.171127 12.395508 -14.470085 36.548486 -3.560224 -2.052846 -41.900506 -1.158966 12.791841 0.000000 0.000000 0.000000 -0.275683 -62.394967 2.169481 -55.635839 2.731695 -10.910547 39.916800 7.583563 -0.035055 9.635246 3.200282 18.402770 0.000000 0.000000 0.000000 0.813054 -59.848085 3.595216 0.769615 -0.472918 -1.409336 12.485891 -4.046944 4.569751 4.054270 -3.913402 2.308080 0.000000 0.000000 0.000000 -6.500449 -2.995782 1.067322 1.464474 7.428964 -1.491152 0.000000 0.000000 0.000000 -4.147312 -3.817657 1.062632 -0.513255 -1.912514 -3.286335 -11.207931 -11.280999 -34.388158 -0.366880 -44.166271 -4.557838 0.000000 0.000000 0.000000 -5.958488 -2.539886 2.005222 8.556227 -6.312507 4.970662 2.669971 9.752731 55.244930 1.160463 32.885230 9.800041 0.000000 0.000000 0.000000 
3.575293 85.978516 16.520138 0.000000 0.000000 0.000000 0.739208 -61.480684 2.704892 -1.739418 10.861838 -13.093220 35.295047 -2.637289 -0.998928 -39.078350 -0.942384 11.772500 0.000000 0.000000 0.000000 -2.404552 -60.775993 -0.009571 -52.982525 2.119767 -12.464864 41.917055 7.903323 -0.859101 10.830852 3.263920 19.247958 0.000000 0.000000 0.000000 -0.938695 -58.720311 1.692310 0.927804 -0.284518 -1.151229 12.490644 -3.944997 4.772053 3.819373 -3.255200 1.981444 0.000000 0.000000 0.000000 -6.669740 -2.405463 0.821967 1.659039 7.448973 -1.393386 0.000000 0.000000 0.000000 -4.322156 -3.245504 0.849347 -0.398758 -1.164998 -3.612260 -10.170314 -10.299754 -35.717163 -0.766460 -48.565285 -4.667979 0.000000 0.000000 0.000000 -6.053684 -1.918097 1.749520 8.613943 -5.875675 4.586835 2.973732 9.549733 52.755982 2.898288 36.194883 9.373977 0.000000 0.000000 0.000000 
3.610713 87.003700 14.621258 0.000000 0.000000 0.000000 -1.207955 -59.915061 0.508272 -3.574236 9.596455 -11.229348 34.294568 -1.455866 -0.124345 -35.972380 -0.290214 10.579164 0.000000 0.000000 0.000000 -4.235008 -59.036241 -1.866793 -50.192092 1.670870 -14.360881 43.146264 8.224568 -1.773438 12.828240 3.815035 20.332153 0.000000 0.000000 0.000000 -2.541168 -57.533402 0.073801 0.847629 -0.104196 -0.982013 12.479550 -3.819828 4.998049 3.685613 -2.684328 1.598831 0.000000 0.000000 0.000000 -6.857044 -1.889761 0.516776 1.762462 7.479822 -1.279400 0.000000 0.000000 0.000000 -4.330094 -2.763311 0.562652 -0.314622 -0.349182 -3.938121 -8.884195 -9.392283 -36.948591 -1.123401 -52.008366 -4.679010 0.000000 0.000000 0.000000 -5.998652 -1.344415 1.454598 8.723582 -5.344725 3.839525 2.388089 8.413964 51.870571 4.684215 38.644213 8.270089 0.000000 0.000000 0.000000 
3.540179 87.770187 12.805004 0.000000 0.000000 0.000000 -2.906425 -58.805470 -1.170813 -5.723629 8.441063 -9.012977 34.610980 -0.140483 0.597190 -33.506108 0.968117 9.701947 0.000000 0.000000 0.000000 -5.481109 -57.558817 -3.178300 -47.254459 1.663399 -16.126360 42.889094 8.356253 -2.839150 14.324469 4.262204 21.157180 0.000000 0.000000 0.000000 -3.823872 -56.844290 -1.097778 0.529821 -0.118355 -1.093436 12.569040 -3.642175 5.139218 3.637168 -2.217042 1.207824 0.000000 0.000000 0.000000 -6.993927 -1.457051 0.206536 1.753581 7.495924 -1.147692 0.000000 0.000000 0.000000 -4.206690 -2.379748 0.252665 -0.281290 0.410726 -4.269059 -7.208389 -8.731926 -38.086030 -1.252108 -54.456692 -4.583907 0.000000 0.000000 0.000000 -5.900684 -0.854012 1.160675 8.848187 -4.530875 3.130187 1.462472 6.602662 51.499404 6.349046 40.616215 6.697907 0.000000 0.000000 0.000000 
3.315929 88.288612 10.960442 0.000000 0.000000 0.000000 -4.038089 -58.517441 -2.078435 -7.643447 7.124799 -6.893137 35.840065 0.892610 1.301303 -32.597238 2.484688 8.375852 0.000000 0.000000 0.000000 -5.954533 -56.931502 -3.763570 -43.773634 1.958047 -17.802599 40.699321 8.208240 -3.902777 14.091631 4.264339 21.537303 0.000000 0.000000 0.000000 -4.541602 -56.845110 -1.715763 0.221552 -0.095240 -1.167600 12.807121 -3.403035 5.039956 3.653442 -1.811652 0.817806 0.000000 0.000000 0.000000 -6.970972 -1.076710 -0.093247 1.659729 7.473393 -1.015613 0.000000 0.000000 0.000000 -4.026547 -2.037045 -0.061215 -0.309197 1.072283 -4.590244 -5.025680 -8.415697 -39.138370 -1.081740 -56.105025 -4.385308 0.000000 0.000000 0.000000 -5.770422 -0.417648 0.872907 8.963466 -3.448402 2.686490 0.923886 4.470641 50.791363 7.743473 42.676258 4.898664 0.000000 0.000000 0.000000 
2.987156 88.533653 9.241421 0.000000 0.000000 0.000000 -4.519379 -59.256952 -2.241447 -8.266699 6.029698 -5.098373 36.379975 1.160824 1.957649 -33.319961 3.657763 5.185634 0.000000 0.000000 0.000000 -6.103891 -57.432008 -3.863844 -39.824111 2.252950 -19.575508 37.142323 8.019670 -4.761533 12.338450 4.035502 21.682425 0.000000 0.000000 0.000000 -4.877307 -57.583781 -1.963799 -0.038959 -0.251429 -1.372566 13.091266 -3.162840 4.659274 3.718448 -1.438349 0.419788 0.000000 0.000000 0.000000 -6.702690 -0.722664 -0.400195 1.502926 7.390721 -0.898119 0.000000 0.000000 0.000000 -3.835075 -1.696119 -0.395668 -0.392889 1.660599 -4.868237 -2.599836 -8.346710 -40.151564 -0.654907 -57.056737 -4.117554 0.000000 0.000000 0.000000 -5.629318 -0.021559 0.557577 9.007834 -2.244832 2.587518 1.127590 2.512842 49.479038 8.803176 45.139907 3.080300 0.000000 0.000000 0.000000 
2.521441 88.591759 7.442142 0.000000 0.000000 0.000000 -4.493376 -60.547469 -1.942064 -7.870851 5.859227 -3.265763 36.074628 0.653785 2.443087 -34.410329 4.622402 0.660392 0.000000 0.000000 0.000000 -6.182347 -58.750835 -3.733823 -35.737442 2.094981 -21.675395 32.921969 7.927396 -5.170023 10.020301 4.033680 22.116195 0.000000 0.000000 0.000000 -4.886954 -58.882139 -1.954275 -0.115355 -0.241629 -1.345653 13.354417 -2.960064 4.070362 3.820200 -1.071690 -0.022726 0.000000 0.000000 0.000000 -6.224269 -0.379495 -0.743711 1.314011 7.235417 -0.808435 0.000000 0.000000 0.000000 -3.678661 -1.334907 -0.787207 -0.516485 2.222333 -5.129539 -0.278717 -8.281033 -41.197649 -0.134467 -57.313224 -3.852447 0.000000 0.000000 0.000000 -5.471867 0.348986 0.185854 8.932046 -1.172575 2.685576 2.056240 1.057557 47.812888 9.582021 48.044268 1.271187 0.000000 0.000000 0.000000 
1.908210 88.586472 5.611580 0.000000 0.000000 0.000000 -4.333945 -62.155452 -1.628972 -7.266003 7.014598 -1.122935 35.704838 0.129652 2.627579 -34.588331 5.743749 -3.425790 0.000000 0.000000 0.000000 -6.218885 -60.620777 -3.569840 -32.018947 1.492069 -23.892219 28.841720 8.159131 -5.068028 8.304857 4.825751 23.089260 0.000000 0.000000 0.000000 -4.744900 -60.415045 -1.822536 -0.018848 -0.125207 -1.108390 13.480944 -2.785061 3.372544 3.968897 -0.710227 -0.547982 0.000000 0.000000 0.000000 -5.669207 -0.049267 -1.159439 1.104554 7.012837 -0.755900 0.000000 0.000000 0.000000 -3.569243 -0.957386 -1.270605 -0.657669 2.789779 -5.340848 1.605685 -8.013268 -42.253565 0.279108 -56.780244 -3.673509 0.000000 0.000000 0.000000 -5.268471 0.697497 -0.284982 8.713710 -0.567188 2.684021 3.450520 0.369855 46.403550 10.170731 51.040856 -0.539057 0.000000 0.000000 0.000000 
